PathFileType	4	(X/Y/Z)	OpenSim_Sub08_CSStiffKnee_Accel.trc
DataRate	CameraRate	NumFrames	NumMarkers	Units	OrigDataRate	OrigDataStartFrame	OrigNumFrames
100	100	27	8	m	100	1981	5282
Frame#	Time	torso_imu_offset_imu	pelvis_imu_offset_imu	tibia_r_imu_offset_imu	femur_r_imu_offset_imu	tibia_l_imu_offset_imu	femur_l_imu_offset_imu	toes_r_imu_offset_imu	toes_l_imu_offset_imu
				X1	Y1	Z1	X2	Y2	Z2	X3	Y3	Z3	X4	Y4	Z4	X5	Y5	Z5	X6	Y6	Z6	X7	Y7	Z7	X8		Y8	Z8	

1981	19.80000000	9.56927365	2.02710065	5.71695437	6.95765311	3.11516630	5.67094907	9.34254954	-2.33255810	-2.86026468	9.56570400	1.87243771	1.59491155	9.66405678	-4.32170637	-4.26135113	7.03911366	-7.62566651	-2.75466742	10.98029967	-5.01990450	10.45873670	6.59514469	2.19139829	11.25248947
1982	19.81000000	9.02182162	2.31993102	5.45220416	6.95686513	3.53956787	5.17640988	8.05061149	0.99247580	-3.80732290	9.53808578	2.58523960	2.03477118	8.59615358	-3.01389044	-2.04819101	7.47832277	-4.29247037	-4.19731553	13.19682321	-1.09948591	11.90000611	6.45747639	2.19809957	10.66417993
1983	19.82000000	8.89185514	2.66362762	5.25936326	7.24964436	2.91988882	5.06661829	7.64597574	5.02520665	-4.07797186	9.98425040	3.32850863	2.52620924	7.94794591	-2.53311185	0.15742617	9.74241962	0.17553623	-3.80434533	10.98604951	2.11207787	14.24999285	6.30452150	2.87000917	11.22116893
1984	19.83000000	9.03288147	2.93401498	5.21987742	8.04626004	1.20423596	5.13867109	7.91114256	9.21920947	-3.92086077	10.84802000	3.70855463	2.75065148	9.61055939	-1.53750890	1.60427822	11.48732500	4.49267196	-2.71918891	1.51493365	-5.45964284	15.21504998	6.35733011	0.59718376	10.88468412
1985	19.84000000	9.37271861	2.98405672	5.14419032	8.89407949	-1.03579090	5.32640498	9.05365341	13.73441383	-2.87707492	11.54340922	3.26417574	2.38844570	11.01000876	-1.02093693	2.83598070	11.13793113	7.11274967	-1.58450404	2.06849115	-12.74784753	16.84302562	6.21507067	-0.17236944	11.16933574
1986	19.85000000	9.48336007	2.81447202	5.26892180	9.50061150	-3.02322875	5.49680000	8.91673892	16.19614546	-1.33498931	11.41984099	2.43601690	1.82130722	10.83946531	-0.69144525	2.76311847	10.16890961	7.56385411	-1.19878142	-0.22788586	-7.85764530	17.07815630	5.72879022	0.05399450	11.25979568
1987	19.86000000	9.20811659	2.47733306	5.48521984	9.69536390	-4.12160174	5.50965366	6.07856980	14.45997808	-0.99555658	10.93996158	1.93380591	1.62346891	10.01224826	-0.74770094	1.87648805	9.91046430	6.53541478	-1.12698366	-6.19117319	-2.20315527	14.06104042	5.21957109	0.11898531	11.28598178
1988	19.87000000	9.04497869	2.03611634	5.54062170	9.31499365	-3.90619356	5.32737499	4.59523801	10.05683159	0.31346375	10.34315681	1.96629509	1.96332903	9.57439740	-1.61229510	0.73274247	9.43248055	4.66636404	-0.62861631	-2.56059139	-3.31422562	13.01803626	4.83053178	0.79394089	10.96289546
1989	19.88000000	8.83888742	1.68044381	5.58891561	8.62488763	-2.73529929	5.04227164	4.81957155	4.80825232	1.53579606	9.68123404	2.45901160	2.81325037	9.33596941	-2.47257004	-0.54728653	8.75858161	2.60088681	-0.28717923	-0.90943052	-7.53634325	11.00536079	5.15100228	1.25749575	10.85148139
1990	19.89000000	8.48379839	1.43033465	5.62211173	8.13526469	-1.25700929	4.83944932	4.48233691	0.58801501	1.11873250	9.40090629	2.98335764	3.55683188	9.03940198	-2.40543187	-1.26269733	8.38364136	0.53989548	-0.18148852	-1.33562478	-9.82467574	8.54413234	5.50463710	1.29203635	10.67930812
1991	19.90000000	8.41712801	1.22795334	5.63049622	7.93285473	0.11742106	4.79725685	4.10213317	-2.12967673	1.14031594	9.48012031	3.15323909	3.68313472	9.25300542	-1.63053137	-1.20877478	8.14633605	-0.95624610	-0.18821507	-1.52034336	-9.09852542	7.24267034	5.24736733	1.87846236	10.80749987
1992	19.91000000	8.57921195	1.17358088	5.67556666	7.86586189	1.07852542	4.84837243	4.33190827	-4.12908311	1.61611348	9.73532149	2.72363899	3.50115286	9.57550610	-0.72161065	-0.76433993	8.49963229	-1.61178058	-0.11930221	0.01652195	-7.80248708	6.81804605	5.07769459	1.79630607	11.01256264
1993	19.92000000	8.60167281	1.19489564	5.79407453	7.84952071	1.50352413	4.97808982	5.25153125	-5.05775723	2.48752438	9.91603937	1.88570393	3.33895170	9.58188630	0.10056985	0.02591123	9.61649777	-1.42133934	-0.17956458	2.26117716	-6.80629939	6.80916897	5.52447430	1.32306747	10.82030357
1994	19.93000000	8.49088768	1.22137620	5.84136372	7.83611639	1.24384732	5.13409228	7.34350786	-4.30592099	3.18002801	9.86556967	1.12167015	3.28648559	9.92970920	0.19983600	0.23611175	10.28679562	-0.64628495	-0.68818483	3.63016989	-7.50208361	6.28740630	5.72571185	0.90716403	10.71864695
1995	19.94000000	8.41502698	1.23528532	5.87488070	7.83513010	0.37781870	5.25520467	10.19043294	-2.01531758	2.02308709	9.69514383	0.61872970	3.38008656	10.29299228	-0.47761511	0.10067065	10.24187687	0.35435627	-1.27078335	3.39040690	-8.75301218	5.80421468	5.65192943	0.98941915	10.82859676
1996	19.95000000	8.44067252	1.26095663	5.87530198	7.80055295	-0.66384988	5.38481078	12.33584350	1.04346255	-0.85492137	9.54578388	0.53686103	3.47379356	9.91467330	-0.95549367	0.26998653	9.58540328	1.47900811	-1.84773952	3.41868301	-7.61873318	7.18723758	5.48909229	0.90849925	11.10263538
1997	19.96000000	8.41304020	1.37725352	5.81493890	7.71373799	-1.62878879	5.49763422	13.24856242	4.20188312	-2.04914097	9.31587154	0.69124704	3.38363557	9.53228351	-0.98988270	0.22584672	9.23692552	2.47764205	-2.09919445	4.99140368	-6.15072797	9.27576635	5.52507202	0.64961247	10.85449784
1998	19.97000000	8.29113967	1.49566816	5.76433505	7.62018061	-2.24114396	5.55101823	12.81249055	5.90602822	-0.31743138	9.04212309	0.85778119	3.06806065	9.73160464	-0.25133579	0.00852533	9.10991815	3.27879921	-1.94104419	6.59495366	-5.25033520	10.43211876	5.66005675	0.90323874	10.74496388
1999	19.98000000	8.18191710	1.55698795	5.75190727	7.46752809	-2.34775988	5.49769700	11.30643776	4.62021311	0.68964136	8.79674896	0.71900233	2.75533260	10.11224868	0.92797162	-0.31961580	8.84909412	3.84576624	-1.69031290	7.21731233	-3.86958509	10.62319574	5.91191812	1.11252058	10.63740927
2000	19.99000000	8.24241342	1.58921228	5.71263087	7.42328015	-2.08919078	5.43857591	9.89228505	1.56598132	0.31844780	8.49138017	0.25410025	2.44433360	10.05211441	1.17792783	-0.65061339	8.80392325	4.14085434	-1.46906806	7.30599092	-2.99641167	10.20443827	5.57450504	1.22441182	10.78516156
2001	20	8.35693784	1.55183693	5.62516526	7.59253517	-1.66682264	5.34160397	9.18288804	-1.60002291	0.38072031	8.17775009	-0.21568269	2.19830764	9.78589669	0.68962695	-0.68696352	8.70794575	4.27056638	-1.33923122	7.28613513	-1.75229747	10.12081967	5.12297072	1.29742876	10.87621014
2002	20.01000000	8.38886796	1.49133286	5.58068272	7.82589117	-1.30516905	5.15340882	9.20712640	-4.03822255	0.69849971	7.97936558	-0.54829311	2.02642595	9.84748019	0.75672976	-0.64517967	8.78651411	4.24478762	-1.32775894	7.52259770	-0.25916896	10.34762867	5.47684472	1.60338041	10.78218527
2003	20.02000000	8.29263208	1.42856088	5.50364897	8.00943166	-1.02206277	5.06888187	9.80960785	-4.95689951	0.70601524	7.88174947	-0.73038614	1.91383966	9.97749179	0.90330914	-0.74021018	8.84502417	4.15868327	-1.48513154	7.70821406	0.78136980	10.46268876	5.48575815	1.43707650	10.66515816
2004	20.03000000	8.31837073	1.39570636	5.43653850	8.10689155	-0.84787072	4.98267869	10.58499093	-3.91129042	0.56905209	7.87191916	-0.75516434	1.81715589	9.82552513	0.71988919	-0.40467147	8.76774070	4.07795692	-1.45838266	7.42626632	0.96331026	10.24876152	5.51268904	1.37711248	10.77939522
2005	20.04000000	8.46798776	1.44676403	5.42815539	8.10286449	-0.83768271	4.85018749	11.14538866	-1.65447818	0.75080904	8.01451789	-0.53820473	1.84674941	9.67209331	0.61884687	-0.17109592	8.76982991	3.89953855	-1.21897019	7.11204278	0.06446505	9.72428902	5.35131393	1.35867419	10.94422683
2006	20.05000000	8.45099186	1.44726812	5.44598620	8.01139484	-0.91803518	4.65284285	11.37230466	0.64789040	1.01846937	8.49232051	-0.25307909	2.03227246	9.56552239	0.55718533	-0.22542897	8.89094866	3.53583639	-0.92150297	6.51034968	-1.29585257	8.94562127	5.54425075	1.38685075	10.79596360
2007	20.06000000	8.43456193	1.39145023	5.44824644	7.91811813	-1.12004894	4.39200772	11.30940545	2.19619894	1.28507371	9.02560205	-0.07720190	2.24427575	9.42623437	0.29428693	-0.11189321	8.97685296	3.17018313	-0.66310668	6.12841487	-2.31735628	8.69099590	5.72469571	1.48436718	10.69169004
